# xmcd
#
# Track frame offsets:
#	150
#	28074
#	55604
#	80867
#	100447
#	121817
#	141777
#	166798
#	188144
#
# Disc length: 2817 seconds
# Revision: 0
# Processed by: cddbd v1.5.2PL0 Copyright (c) Steve Scherf et al.
# Submitted via: dBpowerAMP V12.0
#
DISCID=730aff09
DTITLE=Various Artist - Nghia phu the
DYEAR=2015
DGENRE=Contemporary Pop
TTITLE0=Ngoc Lien - Chuyen tinh khong di vang
TTITLE1=Ngoc Lien - Nghia phu the
TTITLE2=Ngoc Lien - Chuyen tau hoang hon
TTITLE3=Ngoc Lien - Nhat ky doi toi
TTITLE4=Ngoc Lien and Manh Quynh - Lien khuc Lam dau xu la and Nam 17 tuoi
TTITLE5=Ngoc Lien and Manh Quynh - Bien tinh
TTITLE6=Ngoc Lien - Mau hoa bi
TTITLE7=Ngoc Lien - Thuong anh mat doi mat cho
TTITLE8=Ngoc Lien - Nguoi tinh khong den
EXTD=
EXTT0=
EXTT1=
EXTT2=
EXTT3=
EXTT4=
EXTT5=
EXTT6=
EXTT7=
EXTT8=
PLAYORDER=
